STARTFONT 2.1
FONT -Monotype-Century Schoolbook-Bold-R-Normal--12-120-75-75-P-67-iso8859-4
SIZE 12 75 75
FONTBOUNDINGBOX 15 16 -2 -3

STARTPROPERTIES 24
FOUNDRY "Monotype"
FAMILY_NAME "Century Schoolbook"
WEIGHT_NAME "Bold"
SLANT "R"
SETWIDTH_NAME "Normal"
ADD_STYLE_NAME ""
PIXEL_SIZE 12
POINT_SIZE 120
RESOLUTION_X 75
RESOLUTION_Y 75
SPACING "P"
AVERAGE_WIDTH 67
CHARSET_REGISTRY "iso8859"
CHARSET_ENCODING "4"
FACE_NAME "Century Schoolbook Bold ISO Latin4"
_DEC_DEVICE_FONTNAMES "PS=centuryschoolbook-b-lat4"
COPYRIGHT "Copyright (c) 1994 Monotype Typography Ltd."
CAP_HEIGHT 11
X_HEIGHT 7
WEIGHT 10
QUAD_WIDTH 8
DEFAULT_CHAR 160
FONT_DESCENT 3
FONT_ASCENT 13
ENDPROPERTIES

CHARS 191

STARTCHAR space
ENCODING 32
SWIDTH 287 0
DWIDTH 4 0
BBX 0 0 0 0
BITMAP
ENDCHAR

STARTCHAR exclam
ENCODING 33
SWIDTH 296 0
DWIDTH 4 0
BBX 2 9 1 0
BITMAP
C0
C0
C0
C0
C0
40
00
C0
C0
ENDCHAR

STARTCHAR quotedbl
ENCODING 34
SWIDTH 333 0
DWIDTH 4 0
BBX 5 4 0 5
BITMAP
D8
D8
D8
48
ENDCHAR

STARTCHAR numbersign
ENCODING 35
SWIDTH 574 0
DWIDTH 7 0
BBX 9 9 -1 0
BITMAP
1100
1100
7F80
2200
2200
FF00
4400
4400
4400
ENDCHAR

STARTCHAR dollar
ENCODING 36
SWIDTH 574 0
DWIDTH 7 0
BBX 6 12 1 -2
BITMAP
10
78
D4
D4
70
38
2C
AC
AC
78
20
20
ENDCHAR

STARTCHAR percent
ENCODING 37
SWIDTH 833 0
DWIDTH 11 0
BBX 9 9 1 0
BITMAP
4200
E200
A400
E800
4900
1380
2280
2380
4100
ENDCHAR

STARTCHAR ampersand
ENCODING 38
SWIDTH 852 0
DWIDTH 11 0
BBX 9 9 1 0
BITMAP
3800
6C00
6C00
6800
3380
D900
DA00
CE80
7700
ENDCHAR

STARTCHAR quoteright
ENCODING 39
SWIDTH 241 0
DWIDTH 3 0
BBX 2 4 1 5
BITMAP
C0
C0
40
80
ENDCHAR

STARTCHAR parenleft
ENCODING 40
SWIDTH 389 0
DWIDTH 5 0
BBX 4 12 1 -3
BITMAP
10
20
60
40
C0
C0
C0
C0
40
60
20
10
ENDCHAR

STARTCHAR parenright
ENCODING 41
SWIDTH 389 0
DWIDTH 5 0
BBX 4 12 0 -3
BITMAP
80
40
60
20
30
30
30
30
20
60
40
80
ENDCHAR

STARTCHAR asterisk
ENCODING 42
SWIDTH 500 0
DWIDTH 7 0
BBX 5 5 1 4
BITMAP
20
20
F8
70
D8
ENDCHAR

STARTCHAR plus
ENCODING 43
SWIDTH 606 0
DWIDTH 8 0
BBX 7 7 1 1
BITMAP
10
10
10
FE
10
10
10
ENDCHAR

STARTCHAR comma
ENCODING 44
SWIDTH 278 0
DWIDTH 4 0
BBX 2 4 1 -2
BITMAP
80
C0
40
80
ENDCHAR

STARTCHAR minus
ENCODING 45
SWIDTH 606 0
DWIDTH 8 0
BBX 7 1 1 4
BITMAP
FE
ENDCHAR

STARTCHAR period
ENCODING 46
SWIDTH 278 0
DWIDTH 4 0
BBX 2 2 1 0
BITMAP
C0
C0
ENDCHAR

STARTCHAR slash
ENCODING 47
SWIDTH 278 0
DWIDTH 4 0
BBX 4 10 0 0
BITMAP
10
30
30
20
60
60
40
C0
C0
80
ENDCHAR

STARTCHAR zero
ENCODING 48
SWIDTH 574 0
DWIDTH 7 0
BBX 6 9 1 0
BITMAP
78
CC
CC
CC
CC
CC
CC
CC
78
ENDCHAR

STARTCHAR one
ENCODING 49
SWIDTH 574 0
DWIDTH 7 0
BBX 6 9 1 0
BITMAP
30
F0
30
30
30
30
30
30
FC
ENDCHAR

STARTCHAR two
ENCODING 50
SWIDTH 574 0
DWIDTH 7 0
BBX 6 9 1 0
BITMAP
78
CC
CC
0C
18
10
24
7C
FC
ENDCHAR

STARTCHAR three
ENCODING 51
SWIDTH 574 0
DWIDTH 7 0
BBX 6 9 1 0
BITMAP
78
CC
CC
0C
78
0C
CC
CC
78
ENDCHAR

STARTCHAR four
ENCODING 52
SWIDTH 574 0
DWIDTH 7 0
BBX 6 9 1 0
BITMAP
08
18
38
58
58
98
FC
18
3C
ENDCHAR

STARTCHAR five
ENCODING 53
SWIDTH 574 0
DWIDTH 7 0
BBX 6 9 1 0
BITMAP
7C
78
40
F8
8C
0C
CC
CC
78
ENDCHAR

STARTCHAR six
ENCODING 54
SWIDTH 574 0
DWIDTH 7 0
BBX 6 9 1 0
BITMAP
78
CC
C0
D8
EC
CC
CC
CC
78
ENDCHAR

STARTCHAR seven
ENCODING 55
SWIDTH 574 0
DWIDTH 7 0
BBX 7 9 1 0
BITMAP
7E
FE
84
0C
08
18
10
30
30
ENDCHAR

STARTCHAR eight
ENCODING 56
SWIDTH 574 0
DWIDTH 7 0
BBX 6 9 1 0
BITMAP
78
CC
CC
78
78
9C
8C
8C
78
ENDCHAR

STARTCHAR nine
ENCODING 57
SWIDTH 574 0
DWIDTH 7 0
BBX 6 9 1 0
BITMAP
78
CC
CC
CC
CC
7C
0C
CC
78
ENDCHAR

STARTCHAR colon
ENCODING 58
SWIDTH 278 0
DWIDTH 4 0
BBX 2 6 1 0
BITMAP
C0
C0
00
00
C0
C0
ENDCHAR

STARTCHAR semicolon
ENCODING 59
SWIDTH 278 0
DWIDTH 4 0
BBX 2 8 1 -2
BITMAP
C0
C0
00
00
80
C0
40
80
ENDCHAR

STARTCHAR less
ENCODING 60
SWIDTH 606 0
DWIDTH 8 0
BBX 8 7 0 1
BITMAP
03
0E
38
C0
38
0E
03
ENDCHAR

STARTCHAR equal
ENCODING 61
SWIDTH 606 0
DWIDTH 8 0
BBX 7 3 1 3
BITMAP
FE
00
FE
ENDCHAR

STARTCHAR greater
ENCODING 62
SWIDTH 606 0
DWIDTH 8 0
BBX 8 7 0 1
BITMAP
C0
70
1C
03
1C
70
C0
ENDCHAR

STARTCHAR question
ENCODING 63
SWIDTH 500 0
DWIDTH 7 0
BBX 5 9 1 0
BITMAP
70
D8
D8
18
30
20
00
60
60
ENDCHAR

STARTCHAR at
ENCODING 64
SWIDTH 747 0
DWIDTH 10 0
BBX 10 10 0 0
BITMAP
0F00
3080
4240
8E40
9640
9640
9680
9D40
4080
3F00
ENDCHAR

STARTCHAR A
ENCODING 65
SWIDTH 759 0
DWIDTH 10 0
BBX 10 9 0 0
BITMAP
0800
0C00
1C00
1600
2600
3F00
4300
4180
E3C0
ENDCHAR

STARTCHAR B
ENCODING 66
SWIDTH 778 0
DWIDTH 10 0
BBX 8 9 1 0
BITMAP
FE
63
63
63
7E
63
63
63
FE
ENDCHAR

STARTCHAR C
ENCODING 67
SWIDTH 778 0
DWIDTH 10 0
BBX 8 9 1 0
BITMAP
3D
63
C1
C0
C0
C0
C1
62
3C
ENDCHAR

STARTCHAR D
ENCODING 68
SWIDTH 833 0
DWIDTH 11 0
BBX 9 9 1 0
BITMAP
FE00
6300
6180
6180
6180
6180
6180
6300
FE00
ENDCHAR

STARTCHAR E
ENCODING 69
SWIDTH 759 0
DWIDTH 10 0
BBX 8 9 1 0
BITMAP
FF
61
61
64
7C
64
61
61
FF
ENDCHAR

STARTCHAR F
ENCODING 70
SWIDTH 722 0
DWIDTH 9 0
BBX 8 9 1 0
BITMAP
FF
61
61
64
7C
64
60
60
F0
ENDCHAR

STARTCHAR G
ENCODING 71
SWIDTH 833 0
DWIDTH 11 0
BBX 9 9 1 0
BITMAP
3D00
6300
C100
C000
C000
C780
C300
6300
3D00
ENDCHAR

STARTCHAR H
ENCODING 72
SWIDTH 870 0
DWIDTH 11 0
BBX 9 9 1 0
BITMAP
F780
6300
6300
6300
7F00
6300
6300
6300
F780
ENDCHAR

STARTCHAR I
ENCODING 73
SWIDTH 444 0
DWIDTH 6 0
BBX 4 9 1 0
BITMAP
F0
60
60
60
60
60
60
60
F0
ENDCHAR

STARTCHAR J
ENCODING 74
SWIDTH 648 0
DWIDTH 8 0
BBX 7 9 0 0
BITMAP
1E
0C
0C
0C
0C
0C
CC
CC
78
ENDCHAR

STARTCHAR K
ENCODING 75
SWIDTH 815 0
DWIDTH 11 0
BBX 10 9 1 0
BITMAP
F380
6100
6200
6400
6C00
7600
6300
6180
F3C0
ENDCHAR

STARTCHAR L
ENCODING 76
SWIDTH 722 0
DWIDTH 9 0
BBX 8 9 1 0
BITMAP
F0
60
60
60
60
60
61
61
FF
ENDCHAR

STARTCHAR M
ENCODING 77
SWIDTH 981 0
DWIDTH 13 0
BBX 11 9 1 0
BITMAP
E0E0
71C0
71C0
59C0
5BC0
5AC0
4EC0
4CC0
EDE0
ENDCHAR

STARTCHAR N
ENCODING 78
SWIDTH 833 0
DWIDTH 11 0
BBX 9 9 1 0
BITMAP
E380
7100
5900
5900
4D00
4D00
4700
4700
E300
ENDCHAR

STARTCHAR O
ENCODING 79
SWIDTH 833 0
DWIDTH 11 0
BBX 9 9 1 0
BITMAP
1C00
6300
C180
C180
C180
C180
C180
6300
1C00
ENDCHAR

STARTCHAR P
ENCODING 80
SWIDTH 759 0
DWIDTH 10 0
BBX 8 9 1 0
BITMAP
FE
63
63
63
7E
60
60
60
F0
ENDCHAR

STARTCHAR Q
ENCODING 81
SWIDTH 833 0
DWIDTH 11 0
BBX 9 11 1 -2
BITMAP
1C00
6300
C180
C180
C180
D980
E580
6700
1E00
0300
0180
ENDCHAR

STARTCHAR R
ENCODING 82
SWIDTH 815 0
DWIDTH 11 0
BBX 9 9 1 0
BITMAP
FE00
6300
6300
6300
7C00
6600
6680
6380
F300
ENDCHAR

STARTCHAR S
ENCODING 83
SWIDTH 667 0
DWIDTH 9 0
BBX 7 9 1 0
BITMAP
7A
C6
C2
F0
7C
1E
86
C6
BC
ENDCHAR

STARTCHAR T
ENCODING 84
SWIDTH 722 0
DWIDTH 10 0
BBX 8 9 1 0
BITMAP
FF
DB
99
18
18
18
18
18
3C
ENDCHAR

STARTCHAR U
ENCODING 85
SWIDTH 833 0
DWIDTH 11 0
BBX 9 9 1 0
BITMAP
F380
6100
6100
6100
6100
6100
6100
3200
1C00
ENDCHAR

STARTCHAR V
ENCODING 86
SWIDTH 759 0
DWIDTH 9 0
BBX 9 9 0 0
BITMAP
F380
6100
6100
3200
3200
1C00
1C00
0800
0800
ENDCHAR

STARTCHAR W
ENCODING 87
SWIDTH 981 0
DWIDTH 13 0
BBX 13 9 0 0
BITMAP
F7B8
6310
6310
6710
35A0
35A0
39E0
18C0
18C0
ENDCHAR

STARTCHAR X
ENCODING 88
SWIDTH 722 0
DWIDTH 9 0
BBX 9 9 0 0
BITMAP
F380
6100
3200
1C00
0C00
1E00
2600
4300
E780
ENDCHAR

STARTCHAR Y
ENCODING 89
SWIDTH 722 0
DWIDTH 9 0
BBX 9 9 0 0
BITMAP
F380
6100
3200
3400
1800
1800
1800
1800
3C00
ENDCHAR

STARTCHAR Z
ENCODING 90
SWIDTH 667 0
DWIDTH 9 0
BBX 7 9 1 0
BITMAP
FE
8C
98
18
30
60
62
C2
FE
ENDCHAR

STARTCHAR bracketleft
ENCODING 91
SWIDTH 389 0
DWIDTH 5 0
BBX 3 12 1 -3
BITMAP
E0
C0
C0
C0
C0
C0
C0
C0
C0
C0
C0
E0
ENDCHAR

STARTCHAR backslash
ENCODING 92
SWIDTH 606 0
DWIDTH 8 0
BBX 8 9 0 0
BITMAP
E0
60
30
18
18
0C
06
06
03
ENDCHAR

STARTCHAR bracketright
ENCODING 93
SWIDTH 389 0
DWIDTH 5 0
BBX 3 12 0 -3
BITMAP
E0
60
60
60
60
60
60
60
60
60
60
E0
ENDCHAR

STARTCHAR asciicircum
ENCODING 94
SWIDTH 606 0
DWIDTH 8 0
BBX 6 4 1 5
BITMAP
30
30
58
CC
ENDCHAR

STARTCHAR underscore
ENCODING 95
SWIDTH 500 0
DWIDTH 7 0
BBX 7 1 0 -2
BITMAP
FE
ENDCHAR

STARTCHAR quoteleft
ENCODING 96
SWIDTH 241 0
DWIDTH 3 0
BBX 2 4 0 5
BITMAP
40
80
C0
40
ENDCHAR

STARTCHAR a
ENCODING 97
SWIDTH 611 0
DWIDTH 8 0
BBX 8 6 0 0
BITMAP
7C
C6
3E
C6
C6
7B
ENDCHAR

STARTCHAR b
ENCODING 98
SWIDTH 648 0
DWIDTH 8 0
BBX 8 9 -1 0
BITMAP
E0
60
60
6E
73
63
63
73
6E
ENDCHAR

STARTCHAR c
ENCODING 99
SWIDTH 556 0
DWIDTH 7 0
BBX 6 6 0 0
BITMAP
78
C4
C0
C0
C4
78
ENDCHAR

STARTCHAR d
ENCODING 100
SWIDTH 667 0
DWIDTH 9 0
BBX 8 9 0 0
BITMAP
0E
06
06
76
CE
C6
C6
CE
77
ENDCHAR

STARTCHAR e
ENCODING 101
SWIDTH 574 0
DWIDTH 7 0
BBX 6 6 0 0
BITMAP
78
CC
FC
C0
C4
78
ENDCHAR

STARTCHAR f
ENCODING 102
SWIDTH 389 0
DWIDTH 5 0
BBX 6 9 0 0
BITMAP
38
6C
60
F8
60
60
60
60
F0
ENDCHAR

STARTCHAR g
ENCODING 103
SWIDTH 611 0
DWIDTH 8 0
BBX 7 8 0 -2
BITMAP
7A
CC
CC
78
20
7C
86
7C
ENDCHAR

STARTCHAR h
ENCODING 104
SWIDTH 685 0
DWIDTH 9 0
BBX 8 9 0 0
BITMAP
E0
60
60
6C
76
66
66
66
F7
ENDCHAR

STARTCHAR i
ENCODING 105
SWIDTH 370 0
DWIDTH 5 0
BBX 4 9 0 0
BITMAP
60
60
00
E0
60
60
60
60
F0
ENDCHAR

STARTCHAR j
ENCODING 106
SWIDTH 352 0
DWIDTH 5 0
BBX 4 11 -1 -2
BITMAP
30
30
00
70
30
30
30
30
30
A0
C0
ENDCHAR

STARTCHAR k
ENCODING 107
SWIDTH 667 0
DWIDTH 9 0
BBX 8 9 0 0
BITMAP
E0
60
60
6F
64
78
6C
66
F7
ENDCHAR

STARTCHAR l
ENCODING 108
SWIDTH 352 0
DWIDTH 5 0
BBX 4 9 0 0
BITMAP
E0
60
60
60
60
60
60
60
F0
ENDCHAR

STARTCHAR m
ENCODING 109
SWIDTH 963 0
DWIDTH 13 0
BBX 12 6 0 0
BITMAP
EEC0
7760
6660
6660
6660
F770
ENDCHAR

STARTCHAR n
ENCODING 110
SWIDTH 685 0
DWIDTH 9 0
BBX 8 6 0 0
BITMAP
EC
76
66
66
66
F7
ENDCHAR

STARTCHAR o
ENCODING 111
SWIDTH 611 0
DWIDTH 8 0
BBX 7 6 0 0
BITMAP
7C
C6
C6
C6
C6
7C
ENDCHAR

STARTCHAR p
ENCODING 112
SWIDTH 667 0
DWIDTH 9 0
BBX 8 8 0 -2
BITMAP
EE
73
63
63
73
6E
60
F0
ENDCHAR

STARTCHAR q
ENCODING 113
SWIDTH 648 0
DWIDTH 8 0
BBX 8 8 0 -2
BITMAP
76
CE
C6
C6
CE
76
06
0F
ENDCHAR

STARTCHAR r
ENCODING 114
SWIDTH 519 0
DWIDTH 7 0
BBX 6 6 0 0
BITMAP
EC
74
60
60
60
F0
ENDCHAR

STARTCHAR s
ENCODING 115
SWIDTH 500 0
DWIDTH 6 0
BBX 5 6 0 0
BITMAP
78
C8
60
30
98
F0
ENDCHAR

STARTCHAR t
ENCODING 116
SWIDTH 426 0
DWIDTH 6 0
BBX 5 9 0 0
BITMAP
20
20
60
F8
60
60
60
68
30
ENDCHAR

STARTCHAR u
ENCODING 117
SWIDTH 685 0
DWIDTH 9 0
BBX 8 6 0 0
BITMAP
EE
66
66
66
6E
37
ENDCHAR

STARTCHAR v
ENCODING 118
SWIDTH 611 0
DWIDTH 8 0
BBX 8 6 0 0
BITMAP
F7
62
64
3C
38
10
ENDCHAR

STARTCHAR w
ENCODING 119
SWIDTH 889 0
DWIDTH 11 0
BBX 11 6 0 0
BITMAP
EEE0
6440
6E80
3B80
1B00
1100
ENDCHAR

STARTCHAR x
ENCODING 120
SWIDTH 611 0
DWIDTH 8 0
BBX 7 6 0 0
BITMAP
EE
64
38
38
4C
DE
ENDCHAR

STARTCHAR y
ENCODING 121
SWIDTH 611 0
DWIDTH 8 0
BBX 8 8 0 -2
BITMAP
F7
62
34
34
18
08
90
60
ENDCHAR

STARTCHAR z
ENCODING 122
SWIDTH 537 0
DWIDTH 7 0
BBX 5 6 1 0
BITMAP
F8
98
30
60
C8
F8
ENDCHAR

STARTCHAR braceleft
ENCODING 123
SWIDTH 389 0
DWIDTH 5 0
BBX 4 12 0 -3
BITMAP
10
20
60
60
60
C0
C0
60
60
60
20
10
ENDCHAR

STARTCHAR bar
ENCODING 124
SWIDTH 606 0
DWIDTH 8 0
BBX 2 12 3 -3
BITMAP
C0
C0
C0
C0
C0
C0
C0
C0
C0
C0
C0
C0
ENDCHAR

STARTCHAR braceright
ENCODING 125
SWIDTH 389 0
DWIDTH 5 0
BBX 4 12 0 -3
BITMAP
80
40
60
60
60
30
30
60
60
60
40
80
ENDCHAR

STARTCHAR asciitilde
ENCODING 126
SWIDTH 606 0
DWIDTH 8 0
BBX 8 2 0 3
BITMAP
79
9E
ENDCHAR

STARTCHAR space
ENCODING 160
SWIDTH 287 0
DWIDTH 5 0
BBX 0 0 0 0
BITMAP
ENDCHAR

STARTCHAR Aogonek
ENCODING 161
SWIDTH 759 0
DWIDTH 10 0
BBX 10 11 0 -2
BITMAP
0800
0C00
1C00
1600
2600
3F00
4300
4180
E3C0
0100
00C0
ENDCHAR

STARTCHAR afii240
ENCODING 162
SWIDTH 556 0
DWIDTH 7 0
BBX 8 6 0 0
BITMAP
F7
64
78
6C
66
F7
ENDCHAR

STARTCHAR Rcommaaccent
ENCODING 163
SWIDTH 815 0
DWIDTH 11 0
BBX 9 12 1 -3
BITMAP
FE00
6300
6300
6300
7C00
6600
6680
6380
F300
0000
0800
1000
ENDCHAR

STARTCHAR currency
ENCODING 164
SWIDTH 606 0
DWIDTH 8 0
BBX 6 6 1 1
BITMAP
B4
48
CC
CC
48
B4
ENDCHAR

STARTCHAR Itilde
ENCODING 165
SWIDTH 444 0
DWIDTH 6 0
BBX 5 12 1 0
BITMAP
68
B0
00
F0
60
60
60
60
60
60
60
F0
ENDCHAR

STARTCHAR Lcommaaccent
ENCODING 166
SWIDTH 722 0
DWIDTH 9 0
BBX 8 12 1 -3
BITMAP
F0
60
60
60
60
60
61
61
FF
00
10
20
ENDCHAR

STARTCHAR section
ENCODING 167
SWIDTH 500 0
DWIDTH 7 0
BBX 6 11 0 -2
BITMAP
38
44
64
70
98
CC
64
38
98
88
70
ENDCHAR

STARTCHAR hungarumlaut
ENCODING 168
SWIDTH 333 0
DWIDTH 4 0
BBX 6 2 0 7
BITMAP
6C
90
ENDCHAR

STARTCHAR Scaron
ENCODING 169
SWIDTH 667 0
DWIDTH 9 0
BBX 7 12 1 0
BITMAP
28
10
00
7A
C6
C2
F0
7C
1E
86
C6
BC
ENDCHAR

STARTCHAR Emacron
ENCODING 170
SWIDTH 759 0
DWIDTH 10 0
BBX 8 11 1 0
BITMAP
3E
00
FF
61
61
64
7C
64
61
61
FF
ENDCHAR

STARTCHAR Gcommaaccent
ENCODING 171
SWIDTH 833 0
DWIDTH 11 0
BBX 9 12 1 -3
BITMAP
3D00
6300
C100
C000
C000
C780
C300
6300
3D00
0000
0800
1000
ENDCHAR

STARTCHAR afii237
ENCODING 172
SWIDTH 667 0
DWIDTH 10 0
BBX 8 9 1 0
BITMAP
FF
DB
99
18
18
FF
18
18
3C
ENDCHAR

STARTCHAR hyphen
ENCODING 173
SWIDTH 333 0
DWIDTH 4 0
BBX 4 1 0 2
BITMAP
F0
ENDCHAR

STARTCHAR Zcaron
ENCODING 174
SWIDTH 667 0
DWIDTH 9 0
BBX 7 12 1 0
BITMAP
28
10
00
FE
8C
98
18
30
60
62
C2
FE
ENDCHAR

STARTCHAR macron
ENCODING 175
SWIDTH 333 0
DWIDTH 4 0
BBX 5 1 0 7
BITMAP
F8
ENDCHAR

STARTCHAR degree
ENCODING 176
SWIDTH 400 0
DWIDTH 5 0
BBX 4 4 1 5
BITMAP
60
90
90
60
ENDCHAR

STARTCHAR aogonek
ENCODING 177
SWIDTH 611 0
DWIDTH 8 0
BBX 9 8 0 -2
BITMAP
7C00
C600
3E00
C600
C600
7B00
0200
0180
ENDCHAR

STARTCHAR ogonek
ENCODING 178
SWIDTH 333 0
DWIDTH 4 0
BBX 3 2 1 -2
BITMAP
80
60
ENDCHAR

STARTCHAR rcommaaccent
ENCODING 179
SWIDTH 519 0
DWIDTH 7 0
BBX 6 9 0 -3
BITMAP
EC
74
60
60
60
F0
00
40
80
ENDCHAR

STARTCHAR acute
ENCODING 180
SWIDTH 333 0
DWIDTH 4 0
BBX 3 2 1 7
BITMAP
60
80
ENDCHAR

STARTCHAR itilde
ENCODING 181
SWIDTH 370 0
DWIDTH 5 0
BBX 5 9 0 0
BITMAP
68
B0
00
E0
60
60
60
60
F0
ENDCHAR

STARTCHAR lcommaaccent
ENCODING 182
SWIDTH 352 0
DWIDTH 5 0
BBX 4 12 0 -3
BITMAP
E0
60
60
60
60
60
60
60
F0
00
40
80
ENDCHAR

STARTCHAR caron
ENCODING 183
SWIDTH 333 0
DWIDTH 4 0
BBX 3 2 0 7
BITMAP
A0
40
ENDCHAR

STARTCHAR commaaccent
ENCODING 184
SWIDTH 333 0
DWIDTH 4 0
BBX 2 2 1 -3
BITMAP
40
80
ENDCHAR

STARTCHAR scaron
ENCODING 185
SWIDTH 500 0
DWIDTH 6 0
BBX 5 9 0 0
BITMAP
28
10
00
78
C8
60
30
98
F0
ENDCHAR

STARTCHAR emacron
ENCODING 186
SWIDTH 574 0
DWIDTH 7 0
BBX 6 8 0 0
BITMAP
7C
00
78
CC
FC
C0
C4
78
ENDCHAR

STARTCHAR gcommaaccent
ENCODING 187
SWIDTH 611 0
DWIDTH 8 0
BBX 7 12 0 -2
BITMAP
08
10
10
00
7A
CC
CC
78
20
7C
86
7C
ENDCHAR

STARTCHAR afii253
ENCODING 188
SWIDTH 333 0
DWIDTH 6 0
BBX 5 9 0 0
BITMAP
20
20
60
F8
60
F8
60
68
30
ENDCHAR

STARTCHAR afii238
ENCODING 189
SWIDTH 757 0
DWIDTH 10 0
BBX 9 9 1 0
BITMAP
EE00
7300
6180
6180
6180
6180
6980
6900
E600
ENDCHAR

STARTCHAR zcaron
ENCODING 190
SWIDTH 537 0
DWIDTH 7 0
BBX 5 9 1 0
BITMAP
50
20
00
F8
98
30
60
C8
F8
ENDCHAR

STARTCHAR afii254
ENCODING 191
SWIDTH 556 0
DWIDTH 7 0
BBX 7 9 0 -3
BITMAP
EC
76
66
66
66
F6
06
16
0C
ENDCHAR

STARTCHAR Amacron
ENCODING 192
SWIDTH 759 0
DWIDTH 10 0
BBX 10 11 0 0
BITMAP
3E00
0000
0800
0C00
1C00
1600
2600
3F00
4300
4180
E3C0
ENDCHAR

STARTCHAR Aacute
ENCODING 193
SWIDTH 759 0
DWIDTH 10 0
BBX 10 12 0 0
BITMAP
0600
0800
0000
0800
0C00
1C00
1600
2600
3F00
4300
4180
E3C0
ENDCHAR

STARTCHAR Acircumflex
ENCODING 194
SWIDTH 759 0
DWIDTH 10 0
BBX 10 12 0 0
BITMAP
0800
1400
0000
0800
0C00
1C00
1600
2600
3F00
4300
4180
E3C0
ENDCHAR

STARTCHAR Atilde
ENCODING 195
SWIDTH 759 0
DWIDTH 10 0
BBX 10 12 0 0
BITMAP
1A00
2C00
0000
0800
0C00
1C00
1600
2600
3F00
4300
4180
E3C0
ENDCHAR

STARTCHAR Adieresis
ENCODING 196
SWIDTH 759 0
DWIDTH 10 0
BBX 10 11 0 0
BITMAP
3600
0000
0800
0C00
1C00
1600
2600
3F00
4300
4180
E3C0
ENDCHAR

STARTCHAR Aring
ENCODING 197
SWIDTH 759 0
DWIDTH 10 0
BBX 10 13 0 0
BITMAP
0800
1400
0800
0000
0800
0C00
1C00
1600
2600
3F00
4300
4180
E3C0
ENDCHAR

STARTCHAR AE
ENCODING 198
SWIDTH 981 0
DWIDTH 13 0
BBX 13 9 0 0
BITMAP
1FF8
0B08
1308
1320
23E0
3F20
4308
4308
E7F8
ENDCHAR

STARTCHAR Iogonek
ENCODING 199
SWIDTH 444 0
DWIDTH 6 0
BBX 4 11 1 -2
BITMAP
F0
60
60
60
60
60
60
60
F0
40
30
ENDCHAR

STARTCHAR Ccaron
ENCODING 200
SWIDTH 778 0
DWIDTH 10 0
BBX 8 12 1 0
BITMAP
14
08
00
3D
63
C1
C0
C0
C0
C1
62
3C
ENDCHAR

STARTCHAR Eacute
ENCODING 201
SWIDTH 759 0
DWIDTH 10 0
BBX 8 12 1 0
BITMAP
0C
10
00
FF
61
61
64
7C
64
61
61
FF
ENDCHAR

STARTCHAR Eogonek
ENCODING 202
SWIDTH 759 0
DWIDTH 10 0
BBX 8 11 1 -2
BITMAP
FF
61
61
64
7C
64
61
61
FF
04
03
ENDCHAR

STARTCHAR Edieresis
ENCODING 203
SWIDTH 759 0
DWIDTH 10 0
BBX 8 11 1 0
BITMAP
36
00
FF
61
61
64
7C
64
61
61
FF
ENDCHAR

STARTCHAR Edotaccent
ENCODING 204
SWIDTH 759 0
DWIDTH 10 0
BBX 8 11 1 0
BITMAP
0C
00
FF
61
61
64
7C
64
61
61
FF
ENDCHAR

STARTCHAR Iacute
ENCODING 205
SWIDTH 444 0
DWIDTH 6 0
BBX 4 12 1 0
BITMAP
30
40
00
F0
60
60
60
60
60
60
60
F0
ENDCHAR

STARTCHAR Icircumflex
ENCODING 206
SWIDTH 444 0
DWIDTH 6 0
BBX 4 12 1 0
BITMAP
20
50
00
F0
60
60
60
60
60
60
60
F0
ENDCHAR

STARTCHAR Imacron
ENCODING 207
SWIDTH 444 0
DWIDTH 6 0
BBX 5 11 1 0
BITMAP
F8
00
F0
60
60
60
60
60
60
60
F0
ENDCHAR

STARTCHAR Eth
ENCODING 208
SWIDTH 833 0
DWIDTH 11 0
BBX 9 9 1 0
BITMAP
FE00
6300
6180
6180
F980
6180
6180
6300
FE00
ENDCHAR

STARTCHAR Ncommaaccent
ENCODING 209
SWIDTH 833 0
DWIDTH 11 0
BBX 9 12 1 -3
BITMAP
E380
7100
5900
5900
4D00
4D00
4700
4700
E300
0000
0800
1000
ENDCHAR

STARTCHAR Omacron
ENCODING 210
SWIDTH 833 0
DWIDTH 11 0
BBX 9 11 1 0
BITMAP
3E00
0000
1C00
6300
C180
C180
C180
C180
C180
6300
1C00
ENDCHAR

STARTCHAR Kcommaaccent
ENCODING 211
SWIDTH 815 0
DWIDTH 11 0
BBX 10 12 1 -3
BITMAP
F380
6100
6200
6400
6C00
7600
6300
6180
F3C0
0000
0800
1000
ENDCHAR

STARTCHAR Ocircumflex
ENCODING 212
SWIDTH 833 0
DWIDTH 11 0
BBX 9 12 1 0
BITMAP
0800
1400
0000
1C00
6300
C180
C180
C180
C180
C180
6300
1C00
ENDCHAR

STARTCHAR Otilde
ENCODING 213
SWIDTH 833 0
DWIDTH 11 0
BBX 9 12 1 0
BITMAP
1A00
2C00
0000
1C00
6300
C180
C180
C180
C180
C180
6300
1C00
ENDCHAR

STARTCHAR Odieresis
ENCODING 214
SWIDTH 833 0
DWIDTH 11 0
BBX 9 11 1 0
BITMAP
3600
0000
1C00
6300
C180
C180
C180
C180
C180
6300
1C00
ENDCHAR

STARTCHAR multiply
ENCODING 215
SWIDTH 650 0
DWIDTH 8 0
BBX 8 7 0 1
BITMAP
C3
66
3C
18
3C
66
C3
ENDCHAR

STARTCHAR Oslash
ENCODING 216
SWIDTH 833 0
DWIDTH 11 0
BBX 9 9 1 0
BITMAP
1C80
6300
C380
C580
C980
C980
D180
6300
9C00
ENDCHAR

STARTCHAR Uogonek
ENCODING 217
SWIDTH 833 0
DWIDTH 11 0
BBX 9 11 1 -2
BITMAP
F380
6100
6100
6100
6100
6100
6100
3200
1C00
0800
0600
ENDCHAR

STARTCHAR Uacute
ENCODING 218
SWIDTH 833 0
DWIDTH 11 0
BBX 9 12 1 0
BITMAP
0600
0800
0000
F380
6100
6100
6100
6100
6100
6100
3200
1C00
ENDCHAR

STARTCHAR Ucircumflex
ENCODING 219
SWIDTH 833 0
DWIDTH 11 0
BBX 9 12 1 0
BITMAP
0800
1400
0000
F380
6100
6100
6100
6100
6100
6100
3200
1C00
ENDCHAR

STARTCHAR Udieresis
ENCODING 220
SWIDTH 833 0
DWIDTH 11 0
BBX 9 11 1 0
BITMAP
3600
0000
F380
6100
6100
6100
6100
6100
6100
3200
1C00
ENDCHAR

STARTCHAR Utilde
ENCODING 221
SWIDTH 833 0
DWIDTH 11 0
BBX 9 12 1 0
BITMAP
1A00
2C00
0000
F380
6100
6100
6100
6100
6100
6100
3200
1C00
ENDCHAR

STARTCHAR Umacron
ENCODING 222
SWIDTH 833 0
DWIDTH 11 0
BBX 9 11 1 0
BITMAP
3E00
0000
F380
6100
6100
6100
6100
6100
6100
3200
1C00
ENDCHAR

STARTCHAR germandbls
ENCODING 223
SWIDTH 611 0
DWIDTH 8 0
BBX 7 9 0 0
BITMAP
3C
66
66
6C
66
66
66
66
EC
ENDCHAR

STARTCHAR amacron
ENCODING 224
SWIDTH 611 0
DWIDTH 8 0
BBX 8 8 0 0
BITMAP
7C
00
7C
C6
3E
C6
C6
7B
ENDCHAR

STARTCHAR aacute
ENCODING 225
SWIDTH 611 0
DWIDTH 8 0
BBX 8 9 0 0
BITMAP
0C
10
00
7C
C6
3E
C6
C6
7B
ENDCHAR

STARTCHAR acircumflex
ENCODING 226
SWIDTH 611 0
DWIDTH 8 0
BBX 8 9 0 0
BITMAP
10
28
00
7C
C6
3E
C6
C6
7B
ENDCHAR

STARTCHAR atilde
ENCODING 227
SWIDTH 611 0
DWIDTH 8 0
BBX 8 9 0 0
BITMAP
34
58
00
7C
C6
3E
C6
C6
7B
ENDCHAR

STARTCHAR adieresis
ENCODING 228
SWIDTH 611 0
DWIDTH 8 0
BBX 8 8 0 0
BITMAP
6C
00
7C
C6
3E
C6
C6
7B
ENDCHAR

STARTCHAR aring
ENCODING 229
SWIDTH 611 0
DWIDTH 8 0
BBX 8 10 0 0
BITMAP
10
28
10
00
7C
C6
3E
C6
C6
7B
ENDCHAR

STARTCHAR ae
ENCODING 230
SWIDTH 870 0
DWIDTH 11 0
BBX 9 6 1 0
BITMAP
7700
8D80
7F80
CC00
CC80
7700
ENDCHAR

STARTCHAR iogonek
ENCODING 231
SWIDTH 370 0
DWIDTH 5 0
BBX 4 11 0 -2
BITMAP
60
60
00
E0
60
60
60
60
F0
40
30
ENDCHAR

STARTCHAR ccaron
ENCODING 232
SWIDTH 556 0
DWIDTH 7 0
BBX 6 9 0 0
BITMAP
28
10
00
78
C4
C0
C0
C4
78
ENDCHAR

STARTCHAR eacute
ENCODING 233
SWIDTH 574 0
DWIDTH 7 0
BBX 6 9 0 0
BITMAP
18
20
00
78
CC
FC
C0
C4
78
ENDCHAR

STARTCHAR eogonek
ENCODING 234
SWIDTH 574 0
DWIDTH 7 0
BBX 6 8 0 -2
BITMAP
78
CC
FC
C0
C4
78
20
18
ENDCHAR

STARTCHAR edieresis
ENCODING 235
SWIDTH 574 0
DWIDTH 7 0
BBX 6 8 0 0
BITMAP
6C
00
78
CC
FC
C0
C4
78
ENDCHAR

STARTCHAR edotaccent
ENCODING 236
SWIDTH 574 0
DWIDTH 7 0
BBX 6 8 0 0
BITMAP
30
00
78
CC
FC
C0
C4
78
ENDCHAR

STARTCHAR iacute
ENCODING 237
SWIDTH 370 0
DWIDTH 5 0
BBX 4 9 0 0
BITMAP
30
40
00
E0
60
60
60
60
F0
ENDCHAR

STARTCHAR icircumflex
ENCODING 238
SWIDTH 370 0
DWIDTH 5 0
BBX 4 9 0 0
BITMAP
40
A0
00
E0
60
60
60
60
F0
ENDCHAR

STARTCHAR imacron
ENCODING 239
SWIDTH 370 0
DWIDTH 5 0
BBX 5 8 0 0
BITMAP
F8
00
E0
60
60
60
60
F0
ENDCHAR

STARTCHAR dcroat
ENCODING 240
SWIDTH 667 0
DWIDTH 9 0
BBX 8 9 0 0
BITMAP
0E
06
0F
76
CE
C6
C6
CE
77
ENDCHAR

STARTCHAR ncommaaccent
ENCODING 241
SWIDTH 685 0
DWIDTH 9 0
BBX 8 9 0 -3
BITMAP
EC
76
66
66
66
F7
00
08
10
ENDCHAR

STARTCHAR omacron
ENCODING 242
SWIDTH 611 0
DWIDTH 8 0
BBX 7 8 0 0
BITMAP
7C
00
7C
C6
C6
C6
C6
7C
ENDCHAR

STARTCHAR kcommaaccent
ENCODING 243
SWIDTH 667 0
DWIDTH 9 0
BBX 8 12 0 -3
BITMAP
E0
60
60
6F
64
78
6C
66
F7
00
08
10
ENDCHAR

STARTCHAR ocircumflex
ENCODING 244
SWIDTH 611 0
DWIDTH 8 0
BBX 7 9 0 0
BITMAP
10
28
00
7C
C6
C6
C6
C6
7C
ENDCHAR

STARTCHAR otilde
ENCODING 245
SWIDTH 611 0
DWIDTH 8 0
BBX 7 9 0 0
BITMAP
34
58
00
7C
C6
C6
C6
C6
7C
ENDCHAR

STARTCHAR odieresis
ENCODING 246
SWIDTH 611 0
DWIDTH 8 0
BBX 7 8 0 0
BITMAP
6C
00
7C
C6
C6
C6
C6
7C
ENDCHAR

STARTCHAR divide
ENCODING 247
SWIDTH 606 0
DWIDTH 8 0
BBX 7 7 0 1
BITMAP
10
00
00
FE
00
00
10
ENDCHAR

STARTCHAR oslash
ENCODING 248
SWIDTH 611 0
DWIDTH 8 0
BBX 7 6 0 0
BITMAP
7A
CE
D6
D6
E6
BC
ENDCHAR

STARTCHAR uogonek
ENCODING 249
SWIDTH 685 0
DWIDTH 9 0
BBX 8 8 0 -2
BITMAP
EE
66
66
66
6E
37
04
03
ENDCHAR

STARTCHAR uacute
ENCODING 250
SWIDTH 685 0
DWIDTH 9 0
BBX 8 9 0 0
BITMAP
0C
10
00
EE
66
66
66
6E
37
ENDCHAR

STARTCHAR ucircumflex
ENCODING 251
SWIDTH 685 0
DWIDTH 9 0
BBX 8 9 0 0
BITMAP
08
14
00
EE
66
66
66
6E
37
ENDCHAR

STARTCHAR udieresis
ENCODING 252
SWIDTH 685 0
DWIDTH 9 0
BBX 8 8 0 0
BITMAP
36
00
EE
66
66
66
6E
37
ENDCHAR

STARTCHAR utilde
ENCODING 253
SWIDTH 685 0
DWIDTH 9 0
BBX 8 9 0 0
BITMAP
1A
2C
00
EE
66
66
66
6E
37
ENDCHAR

STARTCHAR umacron
ENCODING 254
SWIDTH 685 0
DWIDTH 9 0
BBX 8 8 0 0
BITMAP
7C
00
EE
66
66
66
6E
37
ENDCHAR

STARTCHAR dotaccent
ENCODING 255
SWIDTH 333 0
DWIDTH 4 0
BBX 2 1 1 7
BITMAP
C0
ENDCHAR
ENDFONT
